Coordinates
version=1
nRows=32
nColumns=12
inDegrees=yes

Units are S.I. units (second, meters, Newtons, ...)
Angles are in degrees

endheader
time	SC_y	SC_z	SC_x	AC_y	AC_z	AC_x	GH_y	GH_z	GH_yy	EL_x	PS_y
       0.0              -47.33          19.27          57.97          45.99         -14.53          1.291          83.75          -9.66          65.02          48.26          12.56
    0.0414              -47.34          19.27          57.97          45.99         -14.53          1.293          83.73         -9.652          65.02          48.26          12.56
   0.08281              -47.34          19.27          57.97          45.99         -14.53          1.296          83.72         -9.644          65.02          48.26          12.56
    0.1242              -47.34          19.27          57.97          45.99         -14.52          1.299           83.7         -9.636          65.02          48.27          12.56
    0.1656              -47.34          19.27          57.97          45.99         -14.52          1.302          83.69         -9.627          65.02          48.27          12.56
     0.207              -47.34          19.27          57.98          45.99         -14.52          1.306          83.67         -9.617          65.02          48.28          12.56
    0.2484              -47.35          19.28          57.98          45.99         -14.51          1.309          83.65         -9.606          65.03          48.28          12.56
    0.2898              -47.35          19.28          57.98          45.99         -14.51          1.313          83.63         -9.595          65.03          48.28          12.56
    0.3312              -47.35          19.28          57.98          45.99          -14.5          1.318          83.61         -9.583          65.03          48.29          12.56
    0.3726              -47.35          19.28          57.98          45.99          -14.5          1.322          83.59         -9.571          65.03          48.29          12.55
     0.414              -47.36          19.28          57.98          45.99         -14.49          1.327          83.57         -9.557          65.04           48.3          12.55
    0.4554              -47.36          19.28          57.98          45.99         -14.49          1.332          83.54         -9.542          65.04           48.3          12.55
    0.4968              -47.36          19.28          57.98          45.99         -14.48          1.338          83.52         -9.526          65.04          48.31          12.55
    0.5382              -47.37          19.28          57.98          45.99         -14.48          1.344          83.49         -9.509          65.04          48.32          12.55
    0.5796              -47.37          19.28          57.98          45.98         -14.47           1.35          83.45         -9.491          65.05          48.32          12.55
     0.621              -47.38          19.29          57.98          45.98         -14.46          1.358          83.42         -9.471          65.05          48.33          12.55
    0.6624              -47.38          19.29          57.98          45.98         -14.46          1.365          83.38         -9.449          65.05          48.34          12.54
    0.7039              -47.39          19.29          57.98          45.98         -14.45          1.374          83.34         -9.425          65.06          48.35          12.54
    0.7453              -47.39          19.29          57.98          45.98         -14.44          1.383           83.3         -9.399          65.06          48.36          12.54
    0.7867               -47.4          19.29          57.98          45.98         -14.43          1.393          83.25         -9.371          65.07          48.37          12.54
    0.8281              -47.41           19.3          57.98          45.98         -14.42          1.404          83.19         -9.339          65.07          48.38          12.53
    0.8695              -47.41           19.3          57.98          45.98         -14.41          1.416          83.13         -9.305          65.08           48.4          12.53
    0.9109              -47.42           19.3          57.98          45.98         -14.39           1.43          83.07         -9.267          65.09          48.41          12.53
    0.9523              -47.43          19.31          57.98          45.97         -14.38          1.445          82.99         -9.225          65.09          48.43          12.52
    0.9937              -47.44          19.31          57.98          45.97         -14.36          1.461          82.91         -9.178           65.1          48.44          12.52
     1.035              -47.45          19.31          57.98          45.97         -14.34           1.48          82.82         -9.126          65.11          48.46          12.51
     1.076              -47.47          19.32          57.98          45.97         -14.32          1.501          82.72         -9.067          65.12          48.49          12.51
     1.118              -47.48          19.32          57.98          45.96          -14.3          1.524          82.61         -9.001          65.13          48.51           12.5
     1.159               -47.5          19.33          57.98          45.96         -14.27           1.55          82.48         -8.927          65.14          48.54          12.49
     1.201              -47.52          19.34          57.99          45.96         -14.24           1.58          82.34         -8.843          65.16          48.57          12.49
     1.242              -47.54          19.34          57.99          45.95         -14.21          1.614          82.17         -8.746          65.18          48.61          12.48
     1.283              -47.57          19.35          57.99          45.95         -14.17          1.654          81.98         -8.636          65.19          48.65          12.47
